<?xml version="1.0" encoding="utf-8"?>
<!-- Generator: Adobe Illustrator 19.0.0, SVG Export Plug-In . SVG Version: 6.00 Build 0)  -->
<svg version="1.1" id="Lager_1" xmlns="http://www.w3.org/2000/svg" xmlns:xlink="http://www.w3.org/1999/xlink" x="0px" y="0px"
	 viewBox="0 0 300 114.3" style="enable-background:new 0 0 300 114.3;" xml:space="preserve">
<style type="text/css">
	.st0{fill:#FFE87D;}
</style>
<g id="XMLID_2_">
	<rect id="XMLID_3606_" x="1.4" y="28.4" class="st0" width="8.8" height="38.7"/>
	<rect id="XMLID_3605_" x="12.1" y="59.8" class="st0" width="15" height="7.4"/>
	<path id="XMLID_3603_" class="st0" d="M30.2,47.8c0,10.8,8.5,19.6,19.1,20.1v-8.1c-6.2-0.5-11.1-5.7-11.1-12s4.9-11.5,11.1-12v-8.1
		C38.7,28.2,30.2,37,30.2,47.8"/>
	<path id="XMLID_3602_" class="st0" d="M51.3,27.7v8.1c6.2,0.5,11.1,5.7,11.1,12c0,6.3-4.8,11.5-11.1,12v8.1
		c10.7-0.5,19.1-9.3,19.1-20.1C70.4,37,62,28.2,51.3,27.7"/>
	<path id="XMLID_3601_" class="st0" d="M56,25.6c2.4,0,4.2-1.9,4.2-4.1c0-2.3-1.8-4.1-4.2-4.1c-2.3,0-4.1,1.9-4.1,4.1
		C51.8,23.7,53.7,25.6,56,25.6"/>
	<path id="XMLID_3600_" class="st0" d="M44.6,25.6c2.3,0,4.2-1.9,4.2-4.1c0-2.3-1.9-4.1-4.2-4.1c-2.4,0-4.2,1.9-4.2,4.1
		C40.4,23.7,42.2,25.6,44.6,25.6"/>
	<path id="XMLID_3598_" class="st0" d="M254.5,40.4l6.6-5.4c-3.5-4.5-9-7-15.1-7.2v8.2C249.4,36.3,252.4,37.9,254.5,40.4"/>
	<path id="XMLID_3597_" class="st0" d="M225.1,48c0,11.4,8.3,19.5,18.9,20.1v-8.2c-5.9-0.6-10.2-5.7-10.2-11.9
		c0-6.1,4.2-11.2,10.2-11.8v-8.2C233.4,28.5,225.1,36.9,225.1,48"/>
	<path id="XMLID_3596_" class="st0" d="M246,53.5h8.9c-1.1,3.8-4.9,6.1-8.9,6.4v8.2c11.5-0.3,18.9-8.7,18.9-20.1v-1.6H246V53.5z"/>
	<path id="XMLID_3593_" class="st0" d="M287.6,44c-6.8-1.7-8.5-2.5-8.5-5.1c0-1.8,1.7-3.3,4.4-3.5v-7.7c-7.8,0.1-13,5.2-13,11.9
		c0,7.7,5.1,10,13,12c6.5,1.7,8,2.8,8,5c0,2.3-1.9,3.8-6,3.7V68c8.5,0,14.5-4.3,14.5-12.1v-0.1C300,48.9,295.6,46,287.6,44"/>
	<path id="XMLID_3592_" class="st0" d="M268.9,61.8c3.5,3.5,9.6,6,14.6,6.2v-7.7c-3.3-0.3-7.2-2.4-9.5-4.6L268.9,61.8z"/>
	<rect id="XMLID_3590_" x="77.9" y="28.4" class="st0" width="8.8" height="38.7"/>
	<rect id="XMLID_3589_" x="88.7" y="44.2" class="st0" width="13.8" height="7.5"/>
	<rect id="XMLID_3588_" x="88.7" y="28.4" class="st0" width="16.1" height="7.4"/>
	<path id="XMLID_3586_" class="st0" d="M137.8,47.7c2.7-1.7,4.3-4.6,4.3-8.3c0-6.5-5.1-10.9-12.6-10.9h-5.7v7.1h5.3
		c2.7,0,4.5,1.7,4.5,4.3c0,2.6-1.8,4.3-4.5,4.3h-5.3v7.1h5.6c2.7,0,4.5,1.7,4.5,4.3c0,2.6-1.8,4.3-4.5,4.3h-5.6v7.1h6
		c7.6,0,12.6-4.3,12.6-10.9C142.5,52.4,140.8,49.5,137.8,47.7"/>
	<rect id="XMLID_3585_" x="113" y="28.4" class="st0" width="8.8" height="38.7"/>
	<rect id="XMLID_3583_" x="162.6" y="44.1" class="st0" width="14.5" height="7.5"/>
	<rect id="XMLID_3582_" x="151.8" y="28.4" class="st0" width="8.8" height="38.7"/>
	<rect id="XMLID_3581_" x="162.6" y="59.8" class="st0" width="16.5" height="7.4"/>
	<rect id="XMLID_3580_" x="162.6" y="28.4" class="st0" width="16.5" height="7.4"/>
	<path id="XMLID_3578_" class="st0" d="M218.9,40.8c0-6.8-4.8-12.4-12.7-12.4h-7v7.2h6.1c2.9,0,5.1,1.9,5.1,5.2
		c0,3.2-2.2,5.1-5.1,5.1h-6.1v7.2h5.3l6.1,14h9.2l-7-15.6C216.6,49.5,218.9,45.5,218.9,40.8"/>
	<rect id="XMLID_3290_" x="188.3" y="28.4" class="st0" width="8.8" height="38.7"/>
	<path id="XMLID_3594_" class="st0" d="M298.8,32.6c-3.4-3-8.3-4.7-13.3-4.9v7.7c2.2,0.1,6,1.4,8.9,3.7L298.8,32.6z"/>
	<path id="XMLID_3674_" class="st0" d="M159.2,3.7c-1.6-0.4-1.9-0.6-1.9-1.2c0-0.5,0.4-0.8,1.1-0.8c0.7,0,1.5,0.3,2.3,0.9l1-1.5
		c-0.9-0.8-2.1-1.1-3.3-1.1c-1.8,0-3.1,1.1-3.1,2.7c0,1.8,1.3,2.3,3,2.7c1.5,0.4,1.8,0.6,1.8,1.1c0,0.5-0.4,0.8-1.2,0.8
		c-0.9,0-1.8-0.3-2.7-1.1l-1.2,1.4c1,0.9,2.4,1.4,3.8,1.4c2,0,3.3-1.1,3.3-2.8C162,4.8,160.9,4.1,159.2,3.7z"/>
	<path id="XMLID_3671_" class="st0" d="M138,5.5c0.9-0.5,1.4-1.4,1.4-2.4c0-1.5-1.1-2.8-2.9-2.8h-3.9V9h2V5.8h1.5l1.4,3.1h2.1
		L138,5.5z M136.3,4.2h-1.7V1.8h1.7c0.7,0,1.2,0.4,1.2,1.2C137.5,3.7,137,4.2,136.3,4.2z"/>
	<path id="XMLID_3668_" class="st0" d="M192.8,5.5c0.9-0.5,1.4-1.4,1.4-2.4c0-1.5-1.1-2.8-2.9-2.8h-3.9V9h2V5.8h1.5l1.4,3.1h2.1
		L192.8,5.5z M191,4.2h-1.7V1.8h1.7c0.7,0,1.2,0.4,1.2,1.2C192.2,3.7,191.7,4.2,191,4.2z"/>
	<polygon id="XMLID_3667_" class="st0" points="127.9,2 127.9,0.2 121.9,0.2 121.9,9 127.9,9 127.9,7.1 123.8,7.1 123.8,5.5 
		127.4,5.5 127.4,3.8 123.8,3.8 123.8,2 	"/>
	<polygon id="XMLID_3666_" class="st0" points="182.6,2 182.6,0.2 176.5,0.2 176.5,9 182.6,9 182.6,7.1 178.5,7.1 178.5,5.5 
		182,5.5 182,3.8 178.5,3.8 178.5,2 	"/>
	<polygon id="XMLID_3665_" class="st0" points="211.1,2 211.1,0.2 205.1,0.2 205.1,9 211.1,9 211.1,7.1 207,7.1 207,5.5 210.6,5.5 
		210.6,3.8 207,3.8 207,2 	"/>
	<polygon id="XMLID_3664_" class="st0" points="103.4,5.5 106.8,5.5 106.8,3.7 103.4,3.7 103.4,2 107.4,2 107.4,0.2 101.4,0.2 
		101.4,9 103.4,9 	"/>
	<polygon id="XMLID_3663_" class="st0" points="113.6,5.5 117,5.5 117,3.7 113.6,3.7 113.6,2 117.6,2 117.6,0.2 111.6,0.2 111.6,9 
		113.6,9 	"/>
	<path id="XMLID_3556_" class="st0" d="M81.9,5.5l-1,1.1V9h-2V0.2h2v3.7l3.2-3.7h2.6L83.3,4l3.4,5h-2.4L81.9,5.5z"/>
	<path id="XMLID_3553_" class="st0" d="M95.3,7.2h-3.4L91.3,9h-2.1l3.3-8.8h2.3L98.1,9H96L95.3,7.2z M92.6,5.4h2.1l-1.1-3L92.6,5.4z
		"/>
	<path id="XMLID_3550_" class="st0" d="M147.4,0c2.5,0,4.6,1.8,4.6,4.6c0,2.8-2.1,4.6-4.6,4.6c-2.5,0-4.6-1.8-4.6-4.6
		C142.8,1.8,144.9,0,147.4,0z M147.4,7.2c1.2,0,2.5-0.8,2.5-2.7c0-1.8-1.3-2.7-2.5-2.7c-1.2,0-2.5,0.8-2.5,2.7
		C144.8,6.4,146.2,7.2,147.4,7.2z"/>
	<path id="XMLID_3548_" class="st0" d="M169.8,2.1V9h-2V2.1h-2.7V0.2h7.4v1.9H169.8z"/>
	<path id="XMLID_3546_" class="st0" d="M198.6,9V0.2h2V9H198.6z"/>
	<path id="XMLID_3361_" class="st0" d="M219.7,2.1V9h-2V2.1H215V0.2h7.4v1.9H219.7z"/>
	<path id="XMLID_3357_" class="st0" d="M142.4,91.3c0.6-0.4,1-1,1-1.9c0-1.5-1.2-2.5-2.9-2.5l-3.6,0v8.8l3.7,0c1.7,0,2.9-1,2.9-2.5
		C143.4,92.4,143,91.7,142.4,91.3z M140.4,88.5c0.6,0,1,0.4,1,1c0,0.6-0.4,1-1,1h-1.6v-2H140.4z M140.5,94.1h-1.7v-2h1.7
		c0.6,0,1,0.4,1,1C141.5,93.7,141.1,94.1,140.5,94.1z"/>
	<path id="XMLID_3354_" class="st0" d="M130.9,93.9h-3.4l-0.6,1.8h-2.1l3.3-8.8h2.3l3.3,8.8h-2.1L130.9,93.9z M128.2,92.1h2.1
		l-1.1-3L128.2,92.1z"/>
	<path id="XMLID_3352_" class="st0" d="M147.8,95.7v-8.8h2v6.9h3.8v1.9H147.8z"/>
	<path id="XMLID_3347_" class="st0" d="M183.5,93.9h-3.4l-0.6,1.8h-2.1l3.3-8.8h2.3l3.3,8.8h-2.1L183.5,93.9z M180.8,92.1h2.1
		l-1.1-3L180.8,92.1z"/>
	<path id="XMLID_3333_" class="st0" d="M193.1,88.8v6.9h-2v-6.9h-2.7v-1.9h7.4v1.9H193.1z"/>
	<path id="XMLID_3330_" class="st0" d="M173.1,92.2c0.9-0.5,1.4-1.4,1.4-2.4c0-1.5-1.1-2.8-2.9-2.8h-3.9v8.8h2v-3.1h1.5l1.4,3.1h2.1
		L173.1,92.2z M171.4,90.9h-1.7v-2.3h1.7c0.7,0,1.2,0.4,1.2,1.2C172.6,90.5,172.1,90.9,171.4,90.9z"/>
	<polygon id="XMLID_3329_" class="st0" points="163.3,88.8 163.3,86.9 157.3,86.9 157.3,95.7 163.3,95.7 163.3,93.8 159.3,93.8 
		159.3,92.2 162.8,92.2 162.8,90.5 159.3,90.5 159.3,88.8 	"/>
	<polygon id="XMLID_3328_" class="st0" points="111.6,88.8 111.6,86.9 105.6,86.9 105.6,95.7 111.6,95.7 111.6,93.8 107.5,93.8 
		107.5,92.2 111.1,92.2 111.1,90.5 107.5,90.5 107.5,88.8 	"/>
	<path id="XMLID_3326_" class="st0" d="M119.9,88.8v6.9h-2v-6.9h-2.7v-1.9h7.4v1.9H119.9z"/>
	<path id="XMLID_3288_" class="st0" d="M144.3,105.3c-1.8,0-3.2,1.4-3.2,3.2c0,1.7,1.4,3.1,3.1,3.1l-1.5,2.5h2.1l1.9-3.3
		c0.4-0.7,0.9-1.6,0.9-2.5C147.7,106.4,146,105.3,144.3,105.3z M143,108.4c0-0.8,0.6-1.5,1.4-1.5c0.8,0,1.5,0.6,1.5,1.4
		c0,0.6-0.3,1.1-0.5,1.3c-0.3,0.1-0.6,0.2-0.9,0.2C143.6,109.9,143,109.2,143,108.4z"/>
	<path id="XMLID_2972_" class="st0" d="M164.1,108l1.5-2.5h-2.1l-1.9,3.3c-0.4,0.7-0.9,1.6-0.9,2.5c0,1.9,1.7,3.1,3.3,3.1
		c1.8,0,3.2-1.4,3.2-3.2C167.2,109.3,165.8,108,164.1,108z M162.5,111.2c0-0.6,0.3-1.1,0.5-1.3c0.3-0.1,0.6-0.2,0.9-0.2
		c0.9,0,1.5,0.6,1.5,1.5c0,0.8-0.6,1.5-1.4,1.5C163.2,112.6,162.5,112,162.5,111.2z"/>
	<polygon id="XMLID_2940_" class="st0" points="135.5,107.7 134.1,108.4 134.1,106.5 136.1,105.4 137.4,105.4 137.4,114.1 
		135.5,114.1 	"/>
	<path id="XMLID_2889_" class="st0" d="M154.1,105.3c-2.1,0-3.5,1.5-3.5,4.5c0,3,1.4,4.5,3.5,4.5c2.1,0,3.5-1.5,3.5-4.5
		C157.6,106.8,156.2,105.3,154.1,105.3z M154.1,112.5c-1.3,0-1.6-1.6-1.6-2.8h0c0-1.1,0.4-2.8,1.6-2.8c1.3,0,1.6,1.7,1.6,2.8
		C155.7,110.9,155.4,112.5,154.1,112.5z"/>
</g>
</svg>
