<?xml version="1.0" encoding="UTF-8" standalone="no"?>
<svg
   xmlns:dc="http://purl.org/dc/elements/1.1/"
   xmlns:cc="http://creativecommons.org/ns#"
   xmlns:rdf="http://www.w3.org/1999/02/22-rdf-syntax-ns#"
   xmlns:svg="http://www.w3.org/2000/svg"
   xmlns="http://www.w3.org/2000/svg"
   viewBox="0 0 3779.5332 3779.5332"
   height="3779.5332"
   width="3779.5332"
   xml:space="preserve"
   id="svg2"
   version="1.1"><metadata
     id="metadata8"><rdf:RDF><cc:Work
         rdf:about=""><dc:format>image/svg+xml</dc:format><dc:type
           rdf:resource="http://purl.org/dc/dcmitype/StillImage" /><dc:title></dc:title></cc:Work></rdf:RDF></metadata><defs
     id="defs6">
    <style>
        @import url("../fonts/Bello-Script.woff2");
        @import url("../fonts/Museo700-Regular.woff2.woff2");
    </style>
     <radialGradient
       id="radialGradient34"
       spreadMethod="pad"
       gradientTransform="matrix(1315.0601,0,0,-1315.0601,1413.0601,1417.59)"
       gradientUnits="userSpaceOnUse"
       r="1"
       cy="0"
       cx="0"
       fy="0"
       fx="0"><stop
         id="stop24"
         offset="0"
         style="stop-opacity:1;stop-color:#214335" /><stop
         id="stop26"
         offset="0.82967"
         style="stop-opacity:1;stop-color:#214335" /><stop
         id="stop28"
         offset="0.961538"
         style="stop-opacity:1;stop-color:#0d101e" /><stop
         id="stop30"
         offset="0.9692655"
         style="stop-opacity:1;stop-color:#172b47" /><stop
         id="stop32"
         offset="1"
         style="stop-opacity:1;stop-color:#172b47" /></radialGradient><linearGradient
       id="linearGradient54"
       spreadMethod="pad"
       gradientTransform="matrix(2498.9751,0,0,-2498.9751,163.57077,1417.5917)"
       gradientUnits="userSpaceOnUse"
       y2="0"
       x2="1"
       y1="0"
       x1="0"><stop
         id="stop50"
         offset="0"
         style="stop-opacity:1;stop-color:#0d101e" /><stop
         id="stop52"
         offset="1"
         style="stop-opacity:1;stop-color:#1b3345" /></linearGradient><linearGradient
       id="linearGradient74"
       spreadMethod="pad"
       gradientTransform="matrix(2462.5178,0,0,-2462.5178,181.79262,1417.5984)"
       gradientUnits="userSpaceOnUse"
       y2="0"
       x2="1"
       y1="0"
       x1="0"><stop
         id="stop70"
         offset="0"
         style="stop-opacity:1;stop-color:#1b3345" /><stop
         id="stop72"
         offset="1"
         style="stop-opacity:1;stop-color:#0d101e" /></linearGradient><linearGradient
       id="linearGradient94"
       spreadMethod="pad"
       gradientTransform="matrix(2409.3523,0,0,-2409.3523,217.60023,1600.3629)"
       gradientUnits="userSpaceOnUse"
       y2="0"
       x2="1"
       y1="0"
       x1="0"><stop
         id="stop90"
         offset="0"
         style="stop-opacity:1;stop-color:#ffffff" /><stop
         id="stop92"
         offset="1"
         style="stop-opacity:1;stop-color:#1b3345" /></linearGradient></defs><g
     transform="matrix(1.3333333,0,0,-1.3333333,0,3779.5333)"
     id="g10"><g
       id="g12"><g
         id="g14"><g
           id="g20"><g
             id="g22"><path
               id="path36"
               style="fill:url(#radialGradient34);stroke:none"
               d="M 98,1417.575 C 98,691.299 686.769,102.53 1413.045,102.53 v 0 c 726.271,0 1315.075,588.769 1315.075,1315.045 v 0 c 0,726.306 -588.804,1315.075 -1315.075,1315.075 v 0 C 686.769,2732.65 98,2143.881 98,1417.575" /></g></g></g></g><g
       id="g38"><g
         id="g40"><g
           id="g46"><g
             id="g48"><path
               id="path56"
               style="fill:url(#linearGradient54);stroke:none"
               d="m 163.57,1417.592 c 0,-690.083 559.405,-1249.488 1249.488,-1249.488 v 0 c 690.036,0 1249.488,559.405 1249.488,1249.488 v 0 c 0,690.066 -559.452,1249.487 -1249.488,1249.487 v 0 C 722.975,2667.079 163.57,2107.658 163.57,1417.592" /></g></g></g></g><g
       id="g58"><g
         id="g60"><g
           id="g66"><g
             id="g68"><path
               id="path76"
               style="fill:url(#linearGradient74);stroke:none"
               d="m 181.793,1417.605 c 0,-680.001 551.234,-1231.283 1231.252,-1231.283 v 0 c 680,0 1231.266,551.282 1231.266,1231.283 v 0 c 0,680.019 -551.266,1231.27 -1231.266,1231.27 v 0 c -680.018,0 -1231.252,-551.251 -1231.252,-1231.27" /></g></g></g></g><g
       id="g78"><g
         id="g80"><g
           id="g86"><g
             id="g88"><path
               id="path96"
               style="fill:url(#linearGradient94);stroke:none"
               d="m 217.6,1438.004 c 0,-337.827 141.891,-642.316 369.033,-857.801 v 0 C 385.516,792.198 261.898,1078.42 261.898,1393.689 v 0 c 0,653.113 529.423,1182.553 1182.535,1182.553 v 0 c 315.289,0 601.509,-123.635 813.504,-324.735 v 0 c -215.482,227.125 -519.974,369.016 -857.814,369.016 v 0 C 747.061,2620.523 217.6,2091.082 217.6,1438.004" /></g></g></g></g><text
       id="text100"
       style="font-variant:normal;font-weight:normal;font-stretch:normal;font-size:884.79241943px;font-family:'Bello Script';-inkscape-font-specification:Bello-Script;writing-mode:lr-tb;fill:#ffffff;fill-opacity:1;fill-rule:nonzero;stroke:none"
       transform="matrix(1,0,0,-0.83333333,538.1069,1139.9629)"><tspan
         id="tspan98"
         y="0"
         x="0 476.01831 718.45142 1076.7924 1435.1333">Sibbe</tspan></text>
<text
       id="text104"
       style="font-variant:normal;font-weight:bold;font-stretch:normal;font-size:328px;font-family:'Museo 700';-inkscape-font-specification:Museo700-Regular;writing-mode:lr-tb;fill:#ffffff;fill-opacity:1;fill-rule:nonzero;stroke:none"
       transform="matrix(1,0,0,-1,872.4072,1863.6943)"><tspan
         id="tspan102"
         y="0"
         x="0 273.552 434.92801 656.98401 892.48798">VILLA</tspan></text>
</g></svg>
