<?xml version="1.0" standalone="no"?>
<!DOCTYPE svg PUBLIC "-//W3C//DTD SVG 20010904//EN"
 "http://www.w3.org/TR/2001/REC-SVG-20010904/DTD/svg10.dtd">
<svg version="1.0" xmlns="http://www.w3.org/2000/svg"
 width="1280.000000pt" height="1280.000000pt" viewBox="0 0 1280.000000 1280.000000"
 preserveAspectRatio="xMidYMid meet">
<metadata>
Created by potrace 1.11, written by Peter Selinger 2001-2013
</metadata>
<g transform="translate(0.000000,1280.000000) scale(0.100000,-0.100000)"
fill="#000000" stroke="none">
<path d="M1749 10096 c-2 -2 -38 -6 -79 -10 -84 -7 -108 -11 -230 -31 -264
-45 -469 -111 -675 -217 -55 -28 -196 -112 -220 -130 -180 -140 -258 -215
-358 -343 -32 -40 -128 -181 -155 -226 l-22 -37 723 0 c398 0 739 -3 758 -7
150 -31 244 -99 267 -194 4 -14 6 -109 5 -211 -2 -156 -2 -472 -2 -1035 0
-186 -27 -257 -116 -297 l-50 -22 -797 3 c-657 2 -798 0 -798 -11 0 -28 37
-118 101 -244 126 -247 175 -316 285 -399 70 -54 228 -155 241 -155 7 0 13 -4
13 -8 0 -4 12 -13 28 -19 15 -7 52 -26 82 -44 30 -17 80 -46 110 -62 30 -17
132 -78 225 -135 259 -159 303 -186 390 -232 73 -39 171 -94 234 -131 14 -8
34 -22 45 -31 11 -10 22 -18 25 -18 4 0 6 63 6 139 0 77 2 142 5 144 3 3 32 9
65 12 33 4 68 9 79 11 10 2 44 6 75 9 31 4 67 8 81 11 14 2 45 7 70 10 127 17
305 50 319 58 4 3 8 -7 9 -22 0 -15 0 -39 1 -54 l1 -28 103 0 103 0 0 87 0 86
34 3 c129 11 934 2 1030 -11 19 -2 80 -9 135 -15 119 -13 149 -17 195 -25 19
-4 46 -9 60 -11 65 -12 236 -58 330 -90 207 -70 308 -116 835 -374 176 -87
383 -188 460 -225 77 -37 221 -107 320 -155 249 -121 474 -230 499 -241 12 -5
28 -13 36 -19 8 -5 67 -34 130 -64 63 -29 203 -96 310 -149 107 -52 260 -126
340 -165 80 -38 244 -118 365 -177 208 -102 319 -155 670 -325 83 -40 242
-117 355 -172 113 -55 264 -129 335 -163 72 -35 216 -104 320 -155 105 -51
253 -123 330 -160 385 -186 754 -365 1080 -525 662 -324 686 -335 845 -377
122 -32 340 -32 454 0 83 24 246 99 246 113 0 5 6 9 13 9 7 0 20 8 28 18 9 9
31 28 49 42 32 25 131 141 163 192 58 93 109 222 124 314 10 65 10 257 0 318
-29 175 -151 375 -309 503 -41 34 -154 103 -167 103 -6 0 -11 5 -11 10 0 6 -8
10 -18 10 -10 0 -22 4 -28 8 -5 5 -31 18 -59 29 -94 39 -440 184 -470 198 -16
7 -122 52 -235 100 -113 48 -230 98 -260 111 -85 36 -517 219 -590 249 -36 15
-78 33 -95 40 -16 7 -59 25 -95 40 -36 15 -78 33 -95 40 -16 7 -127 55 -245
105 -118 51 -251 107 -295 125 -44 18 -100 42 -125 53 -25 11 -144 61 -265
112 -121 51 -238 101 -260 111 -22 9 -128 54 -235 99 -107 45 -219 93 -248
106 -29 13 -55 24 -58 24 -3 0 -24 9 -47 19 -23 10 -130 56 -237 101 -107 45
-201 87 -207 92 -7 6 -13 8 -13 5 0 -3 -24 5 -52 18 -29 13 -141 60 -248 105
-107 45 -223 95 -258 111 -35 16 -66 29 -68 29 -3 0 -30 11 -60 25 -30 14 -57
25 -59 25 -3 0 -24 9 -48 19 -23 11 -85 37 -137 59 -92 38 -664 281 -725 307
-16 7 -91 39 -165 70 -74 32 -148 63 -165 71 -16 7 -86 36 -155 64 -69 29
-138 58 -155 65 -16 8 -75 32 -130 55 -55 23 -119 51 -142 61 -23 10 -44 19
-47 19 -2 0 -33 13 -68 29 -35 16 -101 45 -148 66 -47 21 -168 79 -270 130
-444 221 -747 430 -1020 704 -167 168 -160 160 -352 416 -87 116 -161 215
-166 220 -4 6 -63 86 -132 178 -69 92 -177 237 -240 322 -63 84 -123 164 -132
177 -9 12 -49 66 -88 118 -38 52 -78 106 -88 119 -72 100 -194 217 -279 267
-87 52 -201 93 -307 110 -21 3 -48 8 -60 11 -25 6 -401 14 -407 9z m10292
-5960 c107 -9 275 -87 355 -165 72 -70 137 -190 150 -278 3 -21 8 -46 11 -57
9 -33 4 -135 -12 -224 -17 -96 -96 -224 -192 -311 -133 -120 -300 -171 -482
-146 -83 11 -179 56 -269 127 -111 87 -166 156 -203 258 -20 56 -23 83 -23
195 -1 111 3 140 23 195 85 241 252 382 479 405 18 1 35 5 37 6 3 4 46 2 126
-5z"/>
</g>
</svg>
