<svg xmlns="http://www.w3.org/2000/svg" width="209" height="50" viewBox="0 0 209 50"><defs><style>.a{fill:#1d1d1b;}</style></defs><g transform="translate(0 0.001)"><g transform="translate(0 -0.001)"><g transform="translate(121.64)"><path class="a" d="M132.56,14.91c0-1.65-1.49-2.26-4.42-3.05S122,9.79,122,5.88C122,2.35,124.68,0,129.09,0a13.55,13.55,0,0,1,6.84,1.75L135,5a12.08,12.08,0,0,0-5.85-1.71c-2.32,0-3.34,1-3.34,2.35,0,1.62,1.78,2.26,4.51,3,3,.82,6.07,2.19,6.07,6s-2.89,6.2-7.56,6.2A14.23,14.23,0,0,1,121.66,19l.89-3.34a12.14,12.14,0,0,0,6.32,1.91c2.16,0,3.69-1.05,3.69-2.64" transform="translate(-121.64 0.001)"/><rect class="a" width="3.85" height="19.87" transform="translate(18.36 0.481)"/><path class="a" d="M154.65,3.72H152.3V11l2.48-.07c3-.06,4.45-1.33,4.45-3.65s-1.52-3.53-4.58-3.53m0,10.43h-2.26v6.17h-3.87V.48h6.42c5.5,0,8.2,2.76,8.2,6.64,0,4.58-3.15,7-8.49,7" transform="translate(-121.64 0.001)"/><path class="a" d="M175.67,3.24c-3.79,0-6.23,2.86-6.23,7.09s2.48,7.25,6.35,7.25,6.27-2.89,6.27-7.12-2.51-7.22-6.39-7.22m.06,17.58c-5.88,0-10.2-3.84-10.2-10.36C165.53,4.32,169.88,0,175.76,0s10.18,3.81,10.18,10.33c0,6.14-4.33,10.49-10.21,10.49" transform="translate(-121.64 0.001)"/><path class="a" d="M198.75,3.24c-3.79,0-6.23,2.86-6.23,7.09s2.48,7.25,6.35,7.25,6.27-2.89,6.27-7.12-2.51-7.22-6.39-7.22m.06,17.58c-5.88,0-10.2-3.84-10.2-10.36C188.61,4.32,193,0,198.84,0S209,3.81,209,10.33c0,6.14-4.33,10.49-10.21,10.49" transform="translate(-121.64 0.001)"/><path class="a" d="M132.56,44.09c0-1.66-1.49-2.26-4.42-3.05S122,39,122,35.06c0-3.53,2.71-5.88,7.12-5.88a13.45,13.45,0,0,1,6.84,1.75l-1,3.27a12.09,12.09,0,0,0-5.85-1.72c-2.32,0-3.34,1-3.34,2.36,0,1.62,1.78,2.25,4.51,3,3,.83,6.07,2.2,6.07,6s-2.89,6.2-7.56,6.2a14.23,14.23,0,0,1-7.15-1.84l.89-3.34a12.14,12.14,0,0,0,6.32,1.91c2.16,0,3.69-1,3.69-2.64" transform="translate(-121.64 -0.041)"/><rect class="a" width="3.85" height="19.87" transform="translate(18.36 29.609)"/><path class="a" d="M155.86,41H152.3v5.41h3.85c2.6,0,3.88-.92,3.88-2.74S158.31,41,155.86,41m.1-8.23H152.3v5.4h3.34c2.48,0,3.78-1,3.78-2.76s-1.21-2.64-3.46-2.64m8,11.06c0,3.28-2,5.69-7.73,5.69h-7.72V29.65h7.59c5.38,0,7.22,2.23,7.22,5.25,0,2.13-1.27,3.56-3.56,4.32,2.61.58,4.2,2.26,4.2,4.61" transform="translate(-121.64 -0.041)"/><path class="a" d="M174.71,41h-3.56v5.41H175c2.61,0,3.88-.92,3.88-2.74S177.16,41,174.71,41m.1-8.23h-3.66v5.4h3.34c2.48,0,3.78-1,3.78-2.76s-1.2-2.64-3.46-2.64m8,11.06c0,3.28-2,5.69-7.73,5.69h-7.72V29.65h7.6c5.37,0,7.21,2.23,7.21,5.25,0,2.13-1.27,3.56-3.56,4.32,2.61.58,4.2,2.26,4.2,4.61" transform="translate(-121.64 -0.041)"/><path class="a" d="M195.38,32.42c-3.79,0-6.23,2.86-6.23,7.09s2.48,7.25,6.35,7.25,6.27-2.9,6.27-7.12-2.51-7.22-6.39-7.22M195.44,50c-5.88,0-10.2-3.85-10.2-10.36,0-6.14,4.35-10.46,10.23-10.46S205.65,33,205.65,39.51c0,6.13-4.33,10.49-10.21,10.49" transform="translate(-121.64 -0.041)"/></g><g transform="translate(0 0.001)"><path class="a" d="M52.69,49.54l-2.22-3.67a53.29,53.29,0,0,0-17.1-17.23A49.62,49.62,0,0,0,7,21H0V15.83H7a54.81,54.81,0,0,1,29.11,8.43A59.24,59.24,0,0,1,52.67,39.82a55.83,55.83,0,0,1,17.13-16A57.59,57.59,0,0,1,99.7,15.9h7.24V21H99.7a52.5,52.5,0,0,0-27.26,7.2A51,51,0,0,0,54.9,45.86Z" transform="translate(0 -0.042)"/><path class="a" d="M52.69,28.66,50.47,25A37.34,37.34,0,0,0,33.66,10.45C26.1,7,17.14,5.18,7,5.18H0V0H7C17.89,0,27.59,2,35.83,5.76A43.4,43.4,0,0,1,52.67,19,41.94,41.94,0,0,1,70.09,5.34c8-3.48,18-5.25,29.61-5.25h7.24V5.18H99.7C77.51,5.25,62.85,11.7,54.9,25Z"/><path class="a" d="M33,49.81S27.72,38.51,22.41,36.5,4.5,35.87,4.5,35.87s4.67,10.81,8.93,12.8S33,49.81,33,49.81" transform="translate(0 -0.042)"/><path class="a" d="M73.67,49.81S79,38.51,84.27,36.5s17.91-.63,17.91-.63-4.67,10.81-8.94,12.8-19.57,1.14-19.57,1.14" transform="translate(0 -0.042)"/></g></g></g></svg>